# xmcd CD database file
#
# Track frame offsets:
#	150
#	35177
#	61796
#	99911
#	135041
#	174297
#	218837
#
# Disc length: 3427 seconds
#
# Revision: 0
# Processed by: cddbd v1.5.2PL0 Copyright (c) Steve Scherf et al.
# Submitted via: CDex 1.70beta2
#
DISCID=510d6107
DTITLE=Sonny Rollins - The Village Vanguard Vol.1 - Kind Of Rollins CD-2
DYEAR=1957
DGENRE=Jazz
TTITLE0=A Night In Tunisia (Gillespie/Paparelli)
TTITLE1=Striver's Row (Rollins)
TTITLE2=Woody 'N' You (Gillespie)
TTITLE3=Softly As In A Morning Sunrise (Romberg/Hammerstein)
TTITLE4=Sonnymoon For Two (Rollins)
TTITLE5=I've Got You Under My Skin (Porter)
TTITLE6=Four (Davis)
EXTD=YEAR: 1957
EXTT0=
EXTT1=
EXTT2=
EXTT3=
EXTT4=
EXTT5=
EXTT6=
PLAYORDER=
